PathFileType	4	(X/Y/Z)	/tmp/tmpfbxcaoho/Subject7/MarkerData/Take_2_10hz_segment_0.trc
DataRate	CameraRate	NumFrames	NumMarkers	Units	OrigDataRate	OrigDataStartFrame	OrigNumFrames
50.0148	50.0148	12	35	m	50.0148	1500	2000
Frame#	Time	C7			CLAV			LANK			LASI			LBHD			LELB			LFHD			LFIN			LFRM			LHEE			LKNE			LSHO			LTHI			LTIB			LTOE			LUPA			LWRA			LWRB			RASI			RBAK			RBHD			RELB			RFHD			RFIN			RFRM			RHEE			RKNE			RSHO			RTHI			RTOE			RUPA			RWRA			RWRB			STRN			T10		
		X1	Y1	Z1	X2	Y2	Z2	X3	Y3	Z3	X4	Y4	Z4	X5	Y5	Z5	X6	Y6	Z6	X7	Y7	Z7	X8	Y8	Z8	X9	Y9	Z9	X10	Y10	Z10	X11	Y11	Z11	X12	Y12	Z12	X13	Y13	Z13	X14	Y14	Z14	X15	Y15	Z15	X16	Y16	Z16	X17	Y17	Z17	X18	Y18	Z18	X19	Y19	Z19	X20	Y20	Z20	X21	Y21	Z21	X22	Y22	Z22	X23	Y23	Z23	X24	Y24	Z24	X25	Y25	Z25	X26	Y26	Z26	X27	Y27	Z27	X28	Y28	Z28	X29	Y29	Z29	X30	Y30	Z30	X31	Y31	Z31	X32	Y32	Z32	X33	Y33	Z33	X34	Y34	Z34	X35	Y35	Z35

1501	30.0111	1.05153	1.20805	-0.165523	1.09542	1.10837	-0.272936	0.505765	0.10486	0.216	0.88016	0.705842	-0.238601	0.987524	1.36046	-0.218482	0.908924	1.04586	-0.540709	1.1214	1.37436	-0.350059	1.22592	1.09499	-0.439071	1.04461	1.07084	-0.537192	0.540174	0.0350069	0.30889	0.650848	0.374213	-0.0493898	0.932504	1.18262	-0.293914	0.733531	0.504889	-0.143903	0.562943	0.259988	0.101804	0.475265	0.034335	0.0457064	0.888744	1.0983	-0.412987	1.16155	1.02524	-0.442605	1.17092	1.09819	-0.49492	1.14378	0.689072	-0.159423	1.10408	1.07861	-0.0569868	1.06801	1.36014	-0.152481	1.48012	1.0794	-0.25054	1.18791	1.37747	-0.271654	1.28894	1.12119	-0.503918	1.44981	1.08678	-0.374868	1.08076	0.021827	-0.175153	1.3284	0.421011	-0.260176	1.2213	1.1663	-0.18465	1.2445	0.600553	-0.162918	1.26665	0.0143188	-0.364808	1.38884	1.10541	-0.223382	1.3138	1.14446	-0.41292	1.33318	1.08921	-0.468919	1.07596	0.937415	-0.301204	0.979991	0.891114	-0.0569426
1502	30.0311	1.06735	1.20305	-0.17522	1.11141	1.10314	-0.282291	0.505672	0.105104	0.216878	0.892397	0.701134	-0.245544	1.003	1.35519	-0.227413	0.929783	1.04114	-0.551856	1.13639	1.36971	-0.35944	1.25141	1.0915	-0.463753	1.06721	1.06654	-0.554993	0.538921	0.0345042	0.309417	0.660391	0.379633	-0.039472	0.949029	1.17663	-0.305641	0.742929	0.50554	-0.14156	0.567668	0.263738	0.10852	0.475572	0.0344928	0.0458221	0.907143	1.09269	-0.424514	1.19011	1.02145	-0.466605	1.19623	1.09401	-0.519038	1.15662	0.684209	-0.166636	1.11964	1.07424	-0.0670912	1.08369	1.35484	-0.161688	1.49508	1.0773	-0.264929	1.20316	1.37276	-0.281229	1.31462	1.11909	-0.527877	1.47132	1.08452	-0.391136	1.08073	0.0221536	-0.175485	1.33815	0.415116	-0.268364	1.23642	1.1613	-0.194928	1.25603	0.595689	-0.171239	1.26672	0.0140859	-0.364956	1.40361	1.10249	-0.236245	1.3377	1.14267	-0.436715	1.35967	1.0873	-0.491507	1.09153	0.932109	-0.310331	0.994457	0.887363	-0.0659888
1503	30.0511	1.07978	1.19932	-0.18308	1.12396	1.09936	-0.289918	0.505972	0.105412	0.217412	0.901747	0.697698	-0.250155	1.01511	1.35132	-0.23465	0.948031	1.03721	-0.560706	1.14808	1.36633	-0.367045	1.27375	1.08866	-0.486796	1.08702	1.06258	-0.570855	0.53859	0.0342311	0.309676	0.668351	0.385825	-0.0290736	0.96214	1.17199	-0.315615	0.750178	0.507231	-0.137824	0.571634	0.267755	0.11512	0.475761	0.034626	0.0458628	0.922477	1.08817	-0.433987	1.21556	1.01844	-0.488432	1.21846	1.09022	-0.541756	1.16664	0.680883	-0.173026	1.13181	1.07108	-0.0753163	1.09617	1.35103	-0.169004	1.50626	1.0767	-0.277805	1.21511	1.3693	-0.289069	1.3369	1.11756	-0.550314	1.48916	1.0831	-0.405841	1.08065	0.0223042	-0.175747	1.3457	0.410202	-0.275258	1.24808	1.1576	-0.203254	1.26508	0.592099	-0.17856	1.26673	0.0139481	-0.365049	1.41431	1.10063	-0.247477	1.35843	1.14147	-0.459229	1.3832	1.08563	-0.512557	1.10398	0.928222	-0.317831	1.00595	0.884646	-0.0734484
1504	30.0711	1.08878	1.19675	-0.189088	1.13297	1.09684	-0.295793	0.506309	0.105836	0.217769	0.908288	0.695253	-0.2527	1.02389	1.34865	-0.239896	0.963547	1.03487	-0.567164	1.15636	1.36428	-0.372671	1.29236	1.08735	-0.507599	1.10353	1.06003	-0.584553	0.538592	0.0340381	0.309778	0.674619	0.392372	-0.0184086	0.971826	1.16875	-0.322959	0.755352	0.50972	-0.13294	0.574735	0.271604	0.121554	0.475925	0.0347062	0.0458791	0.934223	1.08514	-0.440981	1.23713	1.01666	-0.508366	1.23702	1.08782	-0.562562	1.1742	0.678995	-0.178369	1.14068	1.06896	-0.0815799	1.1052	1.34828	-0.174413	1.51353	1.07726	-0.289238	1.22368	1.36708	-0.294908	1.35537	1.11778	-0.570687	1.50289	1.0828	-0.418857	1.08061	0.0223688	-0.175855	1.35024	0.406941	-0.281463	1.25625	1.15501	-0.209669	1.27183	0.589806	-0.185053	1.26671	0.0138618	-0.36513	1.42123	1.09995	-0.256881	1.3755	1.14145	-0.479772	1.40309	1.08537	-0.53174	1.11321	0.92554	-0.323569	1.01461	0.882829	-0.079067
1505	30.0911	1.09469	1.19523	-0.193287	1.13873	1.09532	-0.299845	0.506453	0.106266	0.21817	0.911812	0.693838	-0.254092	1.02969	1.34704	-0.243428	0.975827	1.03414	-0.571241	1.16162	1.36312	-0.376656	1.30725	1.087	-0.526362	1.1165	1.05881	-0.596011	0.538589	0.0338877	0.309828	0.678997	0.398714	-0.00807556	0.9782	1.16678	-0.327803	0.758546	0.512522	-0.127538	0.576788	0.274979	0.12765	0.476018	0.0347333	0.0458649	0.942526	1.08363	-0.445612	1.25469	1.01597	-0.52634	1.2518	1.08651	-0.58125	1.17906	0.678095	-0.1826	1.14635	1.06778	-0.0858454	1.1109	1.34637	-0.17854	1.51691	1.07772	-0.299266	1.22922	1.36575	-0.299096	1.37053	1.11896	-0.589078	1.5125	1.08263	-0.430398	1.08062	0.0224123	-0.17585	1.35252	0.405318	-0.286433	1.26135	1.15304	-0.214135	1.27616	0.588762	-0.190325	1.26667	0.0137808	-0.36521	1.42479	1.09958	-0.264371	1.38908	1.14206	-0.498151	1.41923	1.0859	-0.548969	1.1193	0.923873	-0.327497	1.02016	0.881859	-0.0829132
1506	30.1111	1.09775	1.19486	-0.195977	1.14162	1.09489	-0.30218	0.506474	0.106569	0.218874	0.912697	0.693708	-0.254376	1.03295	1.34678	-0.245633	0.985038	1.03456	-0.573456	1.16468	1.36286	-0.379062	1.31885	1.087	-0.542646	1.12634	1.05847	-0.6051	0.538583	0.0338358	0.309854	0.681517	0.40421	0.000822595	0.981752	1.16603	-0.330945	0.759944	0.515427	-0.122298	0.577874	0.27777	0.132968	0.475824	0.0348449	0.0457216	0.94802	1.08339	-0.448627	1.26844	1.01599	-0.541532	1.26323	1.08579	-0.597074	1.18103	0.678311	-0.185805	1.14894	1.06777	-0.0882837	1.11426	1.3458	-0.180946	1.51693	1.07752	-0.307737	1.23236	1.36518	-0.301633	1.38259	1.12018	-0.60518	1.51863	1.08195	-0.440329	1.08063	0.0224024	-0.175777	1.35247	0.404804	-0.290021	1.26395	1.15175	-0.216701	1.278	0.588937	-0.19437	1.26661	0.0137241	-0.365302	1.42534	1.09897	-0.269976	1.39993	1.14314	-0.514199	1.43202	1.0859	-0.563865	1.12268	0.923302	-0.329737	1.02268	0.881965	-0.0852691
1507	30.1311	1.09803	1.19577	-0.197021	1.1419	1.09563	-0.302686	0.506411	0.106783	0.219674	0.912318	0.694386	-0.253274	1.03364	1.34801	-0.246403	0.992108	1.03621	-0.574015	1.16549	1.36354	-0.379781	1.32796	1.08754	-0.556735	1.13398	1.0589	-0.612156	0.538568	0.0338327	0.30987	0.682543	0.40806	0.00695833	0.98271	1.16636	-0.332467	0.760039	0.517992	-0.11815	0.578303	0.279729	0.136807	0.475264	0.0351836	0.0455803	0.951509	1.08432	-0.450236	1.2794	1.01657	-0.554261	1.27224	1.08548	-0.610498	1.18115	0.679743	-0.187695	1.14891	1.06915	-0.0888194	1.11507	1.34662	-0.181675	1.51382	1.07802	-0.315278	1.23319	1.36547	-0.302381	1.39198	1.12123	-0.619917	1.52186	1.08161	-0.449044	1.0806	0.0223439	-0.175665	1.35147	0.405109	-0.293142	1.26393	1.1514	-0.217562	1.27796	0.590064	-0.197307	1.26655	0.0136821	-0.365409	1.42286	1.09907	-0.274014	1.40853	1.14499	-0.528892	1.4424	1.08532	-0.577273	1.12382	0.923967	-0.330179	1.02279	0.883223	-0.0860381
1508	30.1511	1.0963	1.19799	-0.195902	1.14019	1.09757	-0.301252	0.506339	0.10698	0.220199	0.91153	0.695798	-0.251056	1.03194	1.35043	-0.245367	0.998221	1.03991	-0.572578	1.16382	1.36506	-0.378832	1.33498	1.09018	-0.56945	1.14046	1.06115	-0.617752	0.538606	0.0338597	0.309862	0.682595	0.410064	0.00994886	0.981761	1.16767	-0.332048	0.75951	0.519957	-0.115524	0.578404	0.280755	0.138845	0.47494	0.0353689	0.0456062	0.953883	1.08657	-0.450013	1.28912	1.01864	-0.566362	1.27992	1.08666	-0.622921	1.18062	0.682181	-0.187763	1.14687	1.07173	-0.0874373	1.11344	1.34878	-0.180669	1.50768	1.08071	-0.322861	1.23162	1.36688	-0.30145	1.40041	1.12173	-0.635271	1.52288	1.0827	-0.457646	1.08066	0.0222895	-0.17547	1.34915	0.406023	-0.295074	1.26152	1.1523	-0.216669	1.27696	0.591791	-0.198825	1.26651	0.0136469	-0.365495	1.41757	1.10114	-0.276634	1.41504	1.14691	-0.543898	1.45151	1.08525	-0.590681	1.12331	0.925939	-0.32871	1.0215	0.885471	-0.0848792
1509	30.1711	1.09295	1.20089	-0.192832	1.13732	1.10055	-0.297993	0.506155	0.107029	0.220439	0.910114	0.698074	-0.248398	1.02839	1.35332	-0.242454	1.00411	1.04601	-0.56891	1.16015	1.36737	-0.376136	1.33868	1.09814	-0.580249	1.14603	1.06684	-0.622086	0.538581	0.0337386	0.309873	0.681921	0.410988	0.0111968	0.979618	1.17003	-0.329427	0.758519	0.521621	-0.113699	0.578046	0.281075	0.139738	0.474889	0.0354384	0.0456922	0.95548	1.09017	-0.447773	1.29819	1.02472	-0.578799	1.28625	1.09195	-0.634925	1.17968	0.685311	-0.185998	1.14358	1.07514	-0.08396	1.11006	1.35196	-0.177756	1.49899	1.08499	-0.3297	1.22804	1.36948	-0.298822	1.40992	1.12225	-0.651094	1.52216	1.08542	-0.465441	1.0806	0.0221731	-0.175451	1.34545	0.407507	-0.295129	1.25769	1.15448	-0.213612	1.27533	0.593925	-0.198609	1.26648	0.0136334	-0.365554	1.41012	1.10482	-0.277359	1.41907	1.14792	-0.55969	1.46085	1.08673	-0.603526	1.122	0.928843	-0.325398	1.0192	0.888312	-0.082
1510	30.1911	1.08866	1.20433	-0.188056	1.1336	1.10416	-0.293072	0.505692	0.106993	0.220478	0.907844	0.701207	-0.245467	1.02348	1.35634	-0.237632	1.00909	1.05456	-0.563548	1.15506	1.37076	-0.371468	1.33879	1.11206	-0.588379	1.14976	1.0769	-0.62477	0.538376	0.0334117	0.30991	0.680492	0.41148	0.0116951	0.976565	1.1735	-0.324789	0.756898	0.523317	-0.112113	0.577132	0.280976	0.140095	0.474893	0.0355485	0.0457939	0.956136	1.09527	-0.44387	1.30532	1.0365	-0.590207	1.28998	1.10326	-0.645346	1.17799	0.688985	-0.183122	1.13924	1.07891	-0.0788858	1.10534	1.3555	-0.172917	1.48868	1.08992	-0.333965	1.223	1.37324	-0.294237	1.42174	1.12482	-0.664999	1.52033	1.09041	-0.470465	1.08057	0.0220477	-0.175405	1.34142	0.409768	-0.293957	1.25306	1.15784	-0.208571	1.27285	0.59646	-0.197251	1.26645	0.0136314	-0.365592	1.40167	1.10938	-0.275762	1.41963	1.14733	-0.574194	1.47141	1.09183	-0.613385	1.11987	0.932483	-0.320786	1.01573	0.891415	-0.0780579
1511	30.2111	1.08357	1.20825	-0.181769	1.12911	1.10848	-0.286794	0.505105	0.106846	0.220464	0.904667	0.705199	-0.242504	1.01755	1.35971	-0.230684	1.01217	1.06603	-0.556875	1.14859	1.37534	-0.364897	1.33874	1.12923	-0.59349	1.15117	1.09086	-0.624643	0.538103	0.0330477	0.309986	0.678215	0.41151	0.01105	0.972734	1.17822	-0.318297	0.754425	0.525049	-0.111161	0.575732	0.28055	0.139753	0.474999	0.0356499	0.0458929	0.955435	1.10255	-0.438458	1.30932	1.05247	-0.597666	1.29088	1.11929	-0.651589	1.17497	0.693251	-0.180128	1.13408	1.08284	-0.0725788	1.09961	1.35924	-0.166258	1.47729	1.0965	-0.33518	1.21677	1.37807	-0.287905	1.43555	1.1318	-0.675509	1.51698	1.09908	-0.472276	1.08062	0.0219734	-0.17527	1.33706	0.412887	-0.292305	1.2477	1.16236	-0.201855	1.26928	0.599419	-0.195635	1.26643	0.0136382	-0.365631	1.39265	1.11511	-0.272036	1.41942	1.14663	-0.586014	1.48211	1.10248	-0.619064	1.11686	0.93693	-0.315272	1.01125	0.89478	-0.0733798
1512	30.231	1.07684	1.2125	-0.174232	1.12347	1.11369	-0.279481	0.504523	0.106427	0.220579	0.900437	0.710007	-0.240066	1.01048	1.36373	-0.221627	1.01396	1.07936	-0.548761	1.14075	1.38099	-0.356368	1.34205	1.14733	-0.596759	1.15137	1.10641	-0.621482	0.537841	0.0327469	0.310127	0.675025	0.410655	0.00849818	0.967829	1.18389	-0.310478	0.751032	0.52652	-0.111437	0.573818	0.279671	0.1383	0.475146	0.0357661	0.0459904	0.953493	1.11154	-0.431801	1.3114	1.0704	-0.600006	1.29029	1.13701	-0.653324	1.17048	0.69817	-0.177112	1.12752	1.08702	-0.0651099	1.09273	1.36328	-0.157693	1.46389	1.10579	-0.334143	1.20929	1.38365	-0.279695	1.44877	1.1443	-0.68202	1.50969	1.11143	-0.471452	1.08064	0.021935	-0.175124	1.33172	0.416247	-0.290788	1.24056	1.16779	-0.193592	1.26457	0.602706	-0.193876	1.26638	0.0136592	-0.365702	1.38205	1.1226	-0.266489	1.41623	1.14532	-0.59578	1.49036	1.11839	-0.620701	1.11285	0.942168	-0.308872	1.00545	0.898456	-0.0680441
